Coordinates
version=1
nRows=14
nColumns=46
inDegrees=yes

Units are S.I. units (second, meters, Newtons, ...)
Angles are in degrees.

endheader
time	pelvis_tilt	pelvis_list	pelvis_rotation	pelvis_tx	pelvis_ty	pelvis_tz	bb_angle	bb_tx	bb_ty	bb_tz	hip_flexion_r	hip_adduction_r	hip_rotation_r	knee_angle_r	knee_angle_r_beta	ankle_angle_r	subtalar_angle_r	mtp_angle_r	crank_angle_r	hip_flexion_l	hip_adduction_l	hip_rotation_l	knee_angle_l	knee_angle_l_beta	ankle_angle_l	subtalar_angle_l	mtp_angle_l	crank_angle_l	lumbar_extension	lumbar_bending	lumbar_rotation	arm_flex_r	arm_add_r	arm_rot_r	elbow_flex_r	pro_sup_r	wrist_flex_r	wrist_dev_r	arm_flex_l	arm_add_l	arm_rot_l	elbow_flex_l	pro_sup_l	wrist_flex_l	wrist_dev_l
      7.50000000	    -34.42153318	      8.94573521	     16.53951153	      0.36960860	      1.15287083	     -0.26506027	      0.00000000	      0.50000000	      0.00000000	      0.25000000	     36.66347928	    -18.98432917	     -3.17550944	     40.55873872	      0.70788353	    -27.04308356	    -10.27314225	      0.00000000	      0.00000000	     83.92453720	      7.61972897	     -4.10284828	     95.36450383	      1.66442458	      1.27626534	      0.41109027	      0.00000000	      0.00000000	    -57.85229017	     -3.30723710	     -9.80971544	     16.62557676	    -33.68364359	      2.03337197	    106.35099546	     51.12917774	      0.00000000	      0.00000000	     45.64843551	    -36.01144927	     28.90326265	    102.94406798	     52.57439541	      0.00000000	      0.00000000
      7.50500000	    -34.28445410	      8.56474313	     16.46103431	      0.36996889	      1.15452330	     -0.26361728	      0.00000000	      0.50000000	      0.00000000	      0.25000000	     37.59843917	    -18.36336612	     -2.44918890	     42.99246700	      0.75036010	    -27.67408907	    -10.89803390	      0.00000000	      0.00000000	     82.53368887	      7.03789308	     -4.14400648	     93.12365965	      1.62531447	      2.86952621	      1.03377876	      0.00000000	      0.00000000	    -58.04426672	     -3.05529303	    -11.44381319	     20.02031462	    -32.46703234	      5.62635369	    104.23241217	     51.03795928	      0.00000000	      0.00000000	     43.83994983	    -38.40341122	     26.82178191	    104.71724963	     52.42959370	      0.00000000	      0.00000000
      7.51000000	    -34.43788888	      8.13520090	     16.39637137	      0.37018998	      1.15529751	     -0.26285564	      0.00000000	      0.50000000	      0.00000000	      0.25000000	     38.93168219	    -17.80886656	     -1.66749119	     45.59329481	      0.79575311	    -28.05319486	    -11.27914976	      0.00000000	      0.00000000	     81.39969063	      6.56043158	     -4.27658918	     90.77524249	      1.58432686	      4.23957372	      1.17473816	      0.00000000	      0.00000000	    -57.93771556	     -2.93900506	    -11.30667465	     20.26277521	    -32.10388168	      5.75922577	    104.15743307	     51.03287633	      0.00000000	      0.00000000	     43.88222794	    -38.65756554	     26.71950533	    104.80716873	     52.41921508	      0.00000000	      0.00000000
      7.51500000	    -34.30667559	      7.64611603	     16.26682456	      0.37051654	      1.15637003	     -0.26187021	      0.00000000	      0.50000000	      0.00000000	      0.25000000	     39.90132146	    -17.07094638	     -0.98844416	     48.01523520	      0.83802395	    -28.54476202	    -11.58380701	      0.00000000	      0.00000000	     79.93895354	      5.98653013	     -4.32998723	     88.31285911	      1.54135016	      5.27842642	      1.15641228	      0.00000000	      0.00000000	    -57.99168638	     -2.71146644	    -12.17102967	     22.41552901	    -30.83217090	      7.57207713	    102.46237604	     50.99133630	      0.00000000	      0.00000000	     42.79707428	    -40.41350692	     25.76217389	    105.80797972	     52.51159291	      0.00000000	      0.00000000
      7.52000000	    -34.20414038	      7.23171586	     16.15376011	      0.37088162	      1.15711600	     -0.26114033	      0.00000000	      0.50000000	      0.00000000	      0.25000000	     40.89170649	    -16.41518503	     -0.32767321	     50.45051660	      0.88052762	    -28.94922400	    -11.88135374	      0.00000000	      0.00000000	     78.45664394	      5.60048134	     -4.44383646	     85.75881645	      1.49677371	      6.01834334	      0.66483551	      0.00000000	      0.00000000	    -58.03927998	     -2.50791888	    -12.11171990	     22.90893148	    -30.51426804	      8.12211275	    102.24933040	     51.02967251	      0.00000000	      0.00000000	     42.44817806	    -40.76798528	     25.12369204	    105.94468783	     52.47441674	      0.00000000	      0.00000000
      7.52500000	    -34.02489280	      6.72656585	     15.94599797	      0.37110405	      1.15765636	     -0.26039073	      0.00000000	      0.50000000	      0.00000000	      0.25000000	     41.80620541	    -15.60290977	      0.22526608	     52.79946900	      0.92152458	    -29.32891639	    -11.96179014	      0.00000000	      0.00000000	     76.92704658	      5.10349079	     -4.44240048	     83.17379544	      1.45165658	      6.66599407	      0.64592175	      0.00000000	      0.00000000	    -58.14528906	     -2.33616803	    -11.82947834	     23.41782660	    -30.37646241	      8.26832127	    102.02125025	     51.00866495	      0.00000000	      0.00000000	     42.31201605	    -41.09715417	     24.87939550	    106.01944369	     52.46489697	      0.00000000	      0.00000000
      7.53000000	    -33.81026031	      5.99329972	     15.83773502	      0.37144579	      1.15809715	     -0.25991223	      0.00000000	      0.50000000	      0.00000000	      0.25000000	     42.56055961	    -14.69541133	      0.43062356	     54.94860040	      0.95903400	    -29.57158948	    -11.96043447	      0.00000000	      0.00000000	     75.42327072	      4.66375717	     -4.19104917	     80.52722658	      1.40546524	      7.05529284	      0.71216467	      0.00000000	      0.00000000	    -58.12671975	     -1.92469903	    -11.29260953	     23.54490535	    -30.24143877	      8.38941983	    101.88105805	     50.99851409	      0.00000000	      0.00000000	     42.15729105	    -41.30100239	     24.79521974	    106.02809513	     52.46099890	      0.00000000	      0.00000000
      7.53500000	    -33.73401412	      5.93987026	     15.42438786	      0.37157855	      1.15799663	     -0.25891768	      0.00000000	      0.50000000	      0.00000000	      0.25000000	     43.68834121	    -14.17463888	      1.32504995	     57.54450357	      1.00434105	    -29.10906443	    -11.96265637	      0.00000000	      0.00000000	     73.82930823	      4.18422824	     -4.64605955	     77.81545255	      1.35813586	      7.47894551	      1.03906558	      0.00000000	      0.00000000	    -57.96815374	     -2.07631807	    -14.32174756	     28.21313408	    -28.22183641	     13.43270660	     98.03128635	     51.00179892	      0.00000000	      0.00000000	     37.46160792	    -44.67446071	     19.77091009	    108.55664900	     52.45896397	      0.00000000	      0.00000000
      7.54000000	    -33.54672854	      5.39181202	     15.18354948	      0.37172774	      1.15779870	     -0.25833095	      0.00000000	      0.50000000	      0.00000000	      0.25000000	     44.53663639	    -13.36068072	      1.57382169	     59.87507077	      1.04501712	    -28.67365249	    -12.16036705	      0.00000000	      0.00000000	     72.30721355	      3.74322420	     -4.49238950	     75.15417840	      1.31168786	      7.44601394	      1.07936269	      0.00000000	      0.00000000	    -57.91043863	     -1.89394508	    -13.85353159	     28.36587911	    -28.23822440	     13.38396564	     97.88413441	     50.97688341	      0.00000000	      0.00000000	     37.26856402	    -44.86207848	     19.65407782	    108.50506067	     52.44251021	      0.00000000	      0.00000000
      7.54500000	    -33.42591378	      5.14287318	     14.71767525	      0.37193472	      1.15738089	     -0.25734501	      0.00000000	      0.50000000	      0.00000000	      0.25000000	     45.54659609	    -12.66891462	      2.19336453	     62.31540085	      1.08760892	    -27.98133055	    -11.83124648	      0.00000000	      0.00000000	     70.73342433	      3.21591851	     -4.61134442	     72.41540792	      1.26388730	      7.32216479	      1.40118134	      0.00000000	      0.00000000	    -57.81798794	     -2.11465825	    -13.86751283	     28.83338386	    -27.83884715	     13.76237229	     97.24262021	     50.93594364	      0.00000000	      0.00000000	     36.71746354	    -45.45361616	     19.13761915	    108.53480350	     52.40772014	      0.00000000	      0.00000000
      7.55000000	    -33.19619905	      4.46463714	     14.41086759	      0.37194461	      1.15686032	     -0.25681545	      0.00000000	      0.50000000	      0.00000000	      0.25000000	     46.35823526	    -11.77294939	      2.18268441	     64.59313708	      1.12736292	    -27.68894025	    -12.09233858	      0.00000000	      0.00000000	     69.23730043	      2.75871631	     -4.08432973	     69.76959388	      1.21770913	      7.09165905	      1.66858968	      0.00000000	      0.00000000	    -57.69237104	     -1.85170931	    -13.15644028	     28.94350355	    -27.80324726	     13.84141650	     97.13466788	     50.92713559	      0.00000000	      0.00000000	     36.49767830	    -45.63064491	     19.03430147	    108.51351938	     52.39831028	      0.00000000	      0.00000000
      7.55500000	    -33.10700023	      4.33560084	     13.93634189	      0.37202288	      1.15607750	     -0.25621033	      0.00000000	      0.50000000	      0.00000000	      0.25000000	     47.38916342	    -11.25637675	      2.65942432	     67.16013028	      1.17216540	    -26.40842645	    -12.21007597	      0.00000000	      0.00000000	     67.68604585	      2.35120516	     -4.23820013	     67.04071811	      1.17008126	      6.55817078	      2.16971641	      0.00000000	      0.00000000	    -57.55116703	     -2.12526304	    -13.20000097	     29.37030269	    -27.83353873	     14.26437588	     96.63082273	     50.89892767	      0.00000000	      0.00000000	     35.86816182	    -46.00893453	     18.39856688	    108.42925198	     52.33382628	      0.00000000	      0.00000000
      7.56000000	    -32.83093323	      3.65221656	     13.47574881	      0.37193794	      1.15534077	     -0.25544258	      0.00000000	      0.50000000	      0.00000000	      0.25000000	     48.22076765	    -10.27571662	      2.60082473	     69.50128729	      1.21302630	    -25.75349678	    -12.58389277	      0.00000000	      0.00000000	     66.20800398	      1.74593125	     -3.65747483	     64.53564482	      1.12635949	      5.93994739	      2.44457071	      0.00000000	      0.00000000	    -57.46577507	     -1.94520283	    -12.44480778	     29.57454703	    -27.79796896	     14.39751386	     96.51873825	     50.89381571	      0.00000000	      0.00000000	     35.58812876	    -46.20432484	     18.24247626	    108.41296775	     52.32131930	      0.00000000	      0.00000000
      7.56500000	    -32.73565712	      3.40513425	     12.85713397	      0.37170334	      1.15423872	     -0.25477606	      0.00000000	      0.50000000	      0.00000000	      0.25000000	     49.36665747	     -9.62430588	      2.95027111	     72.11139089	      1.25858120	    -24.36906726	    -12.48774292	      0.00000000	      0.00000000	     64.76534325	      1.26478731	     -3.66845499	     61.96236865	      1.08144735	      4.96201126	      2.44394057	      0.00000000	      0.00000000	    -57.19155790	     -2.01299674	    -14.96009811	     33.82095330	    -26.49256694	     19.87792773	     92.93559584	     50.94721607	      0.00000000	      0.00000000	     29.54424353	    -48.53467769	     11.78618746	    110.71631836	     52.20407181	      0.00000000	      0.00000000
